<?xml version="1.0" encoding="UTF-8" standalone="no"?>
<!DOCTYPE svg PUBLIC "-//W3C//DTD SVG 1.1//EN"
 "http://www.w3.org/Graphics/SVG/1.1/DTD/svg11.dtd">
<!-- Generated by graphviz version 15.1.1 (20260805.0921)
 -->
<!-- Pages: 1 -->
<svg width="1456pt" height="210pt"
 viewBox="0.00 0.00 1456.00 210.00" xmlns="http://www.w3.org/2000/svg" xmlns:xlink="http://www.w3.org/1999/xlink">
<g id="graph0" class="graph" transform="scale(1 1) rotate(0) translate(4 206)">
<polygon fill="white" stroke="none" points="-4,4 -4,-206 1451.5,-206 1451.5,4 -4,4"/>
<!-- 4463185440 -->
<g id="node1" class="node">
<title>4463185440</title>
<polygon fill="none" stroke="black" points="326.25,-55.5 326.25,-91.5 507,-91.5 507,-55.5 326.25,-55.5"/>
<text xml:space="preserve" text-anchor="middle" x="336.12" y="-68.7" font-family="Times,serif" font-size="14.00"> </text>
<polyline fill="none" stroke="black" points="346,-56 346,-91.5"/>
<text xml:space="preserve" text-anchor="middle" x="385.88" y="-68.7" font-family="Times,serif" font-size="14.00">data 0.0000</text>
<polyline fill="none" stroke="black" points="425.75,-56 425.75,-91.5"/>
<text xml:space="preserve" text-anchor="middle" x="466.38" y="-68.7" font-family="Times,serif" font-size="14.00">grad 0.5000</text>
</g>
<!-- 4463185584+ -->
<g id="node8" class="node">
<title>4463185584+</title>
<ellipse fill="none" stroke="black" cx="572.25" cy="-100.5" rx="27" ry="18"/>
<text xml:space="preserve" text-anchor="middle" x="572.25" y="-95.45" font-family="Times,serif" font-size="14.00">+</text>
</g>
<!-- 4463185440&#45;&gt;4463185584+ -->
<g id="edge6" class="edge">
<title>4463185440&#45;&gt;4463185584+</title>
<path fill="none" stroke="black" d="M507.43,-89.28C516.98,-90.96 526.26,-92.59 534.64,-94.07"/>
<polygon fill="black" stroke="black" points="533.89,-97.49 544.35,-95.77 535.11,-90.59 533.89,-97.49"/>
</g>
<!-- 4463185440* -->
<g id="node2" class="node">
<title>4463185440*</title>
<ellipse fill="none" stroke="black" cx="261" cy="-73.5" rx="27" ry="18"/>
<text xml:space="preserve" text-anchor="middle" x="261" y="-68.45" font-family="Times,serif" font-size="14.00">*</text>
</g>
<!-- 4463185440*&#45;&gt;4463185440 -->
<g id="edge1" class="edge">
<title>4463185440*&#45;&gt;4463185440</title>
<path fill="none" stroke="black" d="M288.41,-73.5C296.12,-73.5 305.04,-73.5 314.51,-73.5"/>
<polygon fill="black" stroke="black" points="314.32,-77 324.32,-73.5 314.32,-70 314.32,-77"/>
</g>
<!-- 4463222848 -->
<g id="node3" class="node">
<title>4463222848</title>
<polygon fill="none" stroke="black" points="1266.75,-109.5 1266.75,-145.5 1447.5,-145.5 1447.5,-109.5 1266.75,-109.5"/>
<text xml:space="preserve" text-anchor="middle" x="1276.62" y="-122.7" font-family="Times,serif" font-size="14.00"> </text>
<polyline fill="none" stroke="black" points="1286.5,-110 1286.5,-145.5"/>
<text xml:space="preserve" text-anchor="middle" x="1326.38" y="-122.7" font-family="Times,serif" font-size="14.00">data 0.7071</text>
<polyline fill="none" stroke="black" points="1366.25,-110 1366.25,-145.5"/>
<text xml:space="preserve" text-anchor="middle" x="1406.88" y="-122.7" font-family="Times,serif" font-size="14.00">grad 1.0000</text>
</g>
<!-- 4463222848tanh -->
<g id="node4" class="node">
<title>4463222848tanh</title>
<ellipse fill="none" stroke="black" cx="1203.75" cy="-127.5" rx="27" ry="18"/>
<text xml:space="preserve" text-anchor="middle" x="1203.75" y="-122.45" font-family="Times,serif" font-size="14.00">tanh</text>
</g>
<!-- 4463222848tanh&#45;&gt;4463222848 -->
<g id="edge2" class="edge">
<title>4463222848tanh&#45;&gt;4463222848</title>
<path fill="none" stroke="black" d="M1231.12,-127.5C1238.26,-127.5 1246.45,-127.5 1255.14,-127.5"/>
<polygon fill="black" stroke="black" points="1254.86,-131 1264.86,-127.5 1254.86,-124 1254.86,-131"/>
</g>
<!-- 4459535472 -->
<g id="node5" class="node">
<title>4459535472</title>
<polygon fill="none" stroke="black" points="324,-110.5 324,-146.5 509.25,-146.5 509.25,-110.5 324,-110.5"/>
<text xml:space="preserve" text-anchor="middle" x="333.88" y="-123.7" font-family="Times,serif" font-size="14.00"> </text>
<polyline fill="none" stroke="black" points="343.75,-111 343.75,-146.5"/>
<text xml:space="preserve" text-anchor="middle" x="385.88" y="-123.7" font-family="Times,serif" font-size="14.00">data &#45;6.0000</text>
<polyline fill="none" stroke="black" points="428,-111 428,-146.5"/>
<text xml:space="preserve" text-anchor="middle" x="468.62" y="-123.7" font-family="Times,serif" font-size="14.00">grad 0.5000</text>
</g>
<!-- 4459535472&#45;&gt;4463185584+ -->
<g id="edge13" class="edge">
<title>4459535472&#45;&gt;4463185584+</title>
<path fill="none" stroke="black" d="M509.65,-111.73C518.39,-110.13 526.86,-108.59 534.58,-107.18"/>
<polygon fill="black" stroke="black" points="534.95,-110.67 544.16,-105.44 533.69,-103.79 534.95,-110.67"/>
</g>
<!-- 4459535472* -->
<g id="node6" class="node">
<title>4459535472*</title>
<ellipse fill="none" stroke="black" cx="261" cy="-128.5" rx="27" ry="18"/>
<text xml:space="preserve" text-anchor="middle" x="261" y="-123.45" font-family="Times,serif" font-size="14.00">*</text>
</g>
<!-- 4459535472*&#45;&gt;4459535472 -->
<g id="edge3" class="edge">
<title>4459535472*&#45;&gt;4459535472</title>
<path fill="none" stroke="black" d="M288.41,-128.5C295.45,-128.5 303.5,-128.5 312.05,-128.5"/>
<polygon fill="black" stroke="black" points="312.04,-132 322.04,-128.5 312.04,-125 312.04,-132"/>
</g>
<!-- 4463185584 -->
<g id="node7" class="node">
<title>4463185584</title>
<polygon fill="none" stroke="black" points="642,-82.5 642,-118.5 827.25,-118.5 827.25,-82.5 642,-82.5"/>
<text xml:space="preserve" text-anchor="middle" x="651.88" y="-95.7" font-family="Times,serif" font-size="14.00"> </text>
<polyline fill="none" stroke="black" points="661.75,-83 661.75,-118.5"/>
<text xml:space="preserve" text-anchor="middle" x="703.88" y="-95.7" font-family="Times,serif" font-size="14.00">data &#45;6.0000</text>
<polyline fill="none" stroke="black" points="746,-83 746,-118.5"/>
<text xml:space="preserve" text-anchor="middle" x="786.62" y="-95.7" font-family="Times,serif" font-size="14.00">grad 0.5000</text>
</g>
<!-- 4463185776+ -->
<g id="node14" class="node">
<title>4463185776+</title>
<ellipse fill="none" stroke="black" cx="897" cy="-127.5" rx="27" ry="18"/>
<text xml:space="preserve" text-anchor="middle" x="897" y="-122.45" font-family="Times,serif" font-size="14.00">+</text>
</g>
<!-- 4463185584&#45;&gt;4463185776+ -->
<g id="edge8" class="edge">
<title>4463185584&#45;&gt;4463185776+</title>
<path fill="none" stroke="black" d="M827.52,-115.97C838.77,-117.86 849.7,-119.7 859.4,-121.34"/>
<polygon fill="black" stroke="black" points="858.64,-124.76 869.08,-122.97 859.8,-117.86 858.64,-124.76"/>
</g>
<!-- 4463185584+&#45;&gt;4463185584 -->
<g id="edge4" class="edge">
<title>4463185584+&#45;&gt;4463185584</title>
<path fill="none" stroke="black" d="M599.73,-100.5C608.61,-100.5 619.11,-100.5 630.26,-100.5"/>
<polygon fill="black" stroke="black" points="630.08,-104 640.08,-100.5 630.08,-97 630.08,-104"/>
</g>
<!-- 4459536048 -->
<g id="node9" class="node">
<title>4459536048</title>
<polygon fill="none" stroke="black" points="0,-165.5 0,-201.5 198,-201.5 198,-165.5 0,-165.5"/>
<text xml:space="preserve" text-anchor="middle" x="16.25" y="-178.7" font-family="Times,serif" font-size="14.00">w1</text>
<polyline fill="none" stroke="black" points="32.5,-166 32.5,-201.5"/>
<text xml:space="preserve" text-anchor="middle" x="74.62" y="-178.7" font-family="Times,serif" font-size="14.00">data &#45;3.0000</text>
<polyline fill="none" stroke="black" points="116.75,-166 116.75,-201.5"/>
<text xml:space="preserve" text-anchor="middle" x="157.38" y="-178.7" font-family="Times,serif" font-size="14.00">grad 0.0000</text>
</g>
<!-- 4459536048&#45;&gt;4459535472* -->
<g id="edge14" class="edge">
<title>4459536048&#45;&gt;4459535472*</title>
<path fill="none" stroke="black" d="M172.12,-165.01C180.9,-162.35 189.7,-159.5 198,-156.5 208.09,-152.86 218.82,-148.27 228.47,-143.88"/>
<polygon fill="black" stroke="black" points="229.86,-147.09 237.45,-139.69 226.9,-140.75 229.86,-147.09"/>
</g>
<!-- 4459535568 -->
<g id="node10" class="node">
<title>4459535568</title>
<polygon fill="none" stroke="black" points="635.25,-137.5 635.25,-173.5 834,-173.5 834,-137.5 635.25,-137.5"/>
<text xml:space="preserve" text-anchor="middle" x="654.12" y="-150.7" font-family="Times,serif" font-size="14.00">bias</text>
<polyline fill="none" stroke="black" points="673,-138 673,-173.5"/>
<text xml:space="preserve" text-anchor="middle" x="712.88" y="-150.7" font-family="Times,serif" font-size="14.00">data 6.8814</text>
<polyline fill="none" stroke="black" points="752.75,-138 752.75,-173.5"/>
<text xml:space="preserve" text-anchor="middle" x="793.38" y="-150.7" font-family="Times,serif" font-size="14.00">grad 0.5000</text>
</g>
<!-- 4459535568&#45;&gt;4463185776+ -->
<g id="edge10" class="edge">
<title>4459535568&#45;&gt;4463185776+</title>
<path fill="none" stroke="black" d="M834.45,-138.25C843.17,-136.72 851.57,-135.26 859.22,-133.92"/>
<polygon fill="black" stroke="black" points="859.81,-137.37 869.06,-132.2 858.61,-130.47 859.81,-137.37"/>
</g>
<!-- 4459557600 -->
<g id="node11" class="node">
<title>4459557600</title>
<polygon fill="none" stroke="black" points="1.5,-110.5 1.5,-146.5 196.5,-146.5 196.5,-110.5 1.5,-110.5"/>
<text xml:space="preserve" text-anchor="middle" x="16.25" y="-123.7" font-family="Times,serif" font-size="14.00">x1</text>
<polyline fill="none" stroke="black" points="31,-111 31,-146.5"/>
<text xml:space="preserve" text-anchor="middle" x="70.88" y="-123.7" font-family="Times,serif" font-size="14.00">data 2.0000</text>
<polyline fill="none" stroke="black" points="110.75,-111 110.75,-146.5"/>
<text xml:space="preserve" text-anchor="middle" x="153.62" y="-123.7" font-family="Times,serif" font-size="14.00">grad &#45;1.5000</text>
</g>
<!-- 4459557600&#45;&gt;4459535472* -->
<g id="edge9" class="edge">
<title>4459557600&#45;&gt;4459535472*</title>
<path fill="none" stroke="black" d="M196.76,-128.5C205.77,-128.5 214.47,-128.5 222.4,-128.5"/>
<polygon fill="black" stroke="black" points="222.25,-132 232.25,-128.5 222.25,-125 222.25,-132"/>
</g>
<!-- 4459535664 -->
<g id="node12" class="node">
<title>4459535664</title>
<polygon fill="none" stroke="black" points="2.25,-55.5 2.25,-91.5 195.75,-91.5 195.75,-55.5 2.25,-55.5"/>
<text xml:space="preserve" text-anchor="middle" x="18.5" y="-68.7" font-family="Times,serif" font-size="14.00">w2</text>
<polyline fill="none" stroke="black" points="34.75,-56 34.75,-91.5"/>
<text xml:space="preserve" text-anchor="middle" x="74.62" y="-68.7" font-family="Times,serif" font-size="14.00">data 1.0000</text>
<polyline fill="none" stroke="black" points="114.5,-56 114.5,-91.5"/>
<text xml:space="preserve" text-anchor="middle" x="155.12" y="-68.7" font-family="Times,serif" font-size="14.00">grad 0.0000</text>
</g>
<!-- 4459535664&#45;&gt;4463185440* -->
<g id="edge11" class="edge">
<title>4459535664&#45;&gt;4463185440*</title>
<path fill="none" stroke="black" d="M195.84,-73.5C205.14,-73.5 214.15,-73.5 222.32,-73.5"/>
<polygon fill="black" stroke="black" points="222.13,-77 232.13,-73.5 222.13,-70 222.13,-77"/>
</g>
<!-- 4463185776 -->
<g id="node13" class="node">
<title>4463185776</title>
<polygon fill="none" stroke="black" points="960,-109.5 960,-145.5 1140.75,-145.5 1140.75,-109.5 960,-109.5"/>
<text xml:space="preserve" text-anchor="middle" x="969.88" y="-122.7" font-family="Times,serif" font-size="14.00"> </text>
<polyline fill="none" stroke="black" points="979.75,-110 979.75,-145.5"/>
<text xml:space="preserve" text-anchor="middle" x="1019.62" y="-122.7" font-family="Times,serif" font-size="14.00">data 0.8814</text>
<polyline fill="none" stroke="black" points="1059.5,-110 1059.5,-145.5"/>
<text xml:space="preserve" text-anchor="middle" x="1100.12" y="-122.7" font-family="Times,serif" font-size="14.00">grad 0.5000</text>
</g>
<!-- 4463185776&#45;&gt;4463222848tanh -->
<g id="edge7" class="edge">
<title>4463185776&#45;&gt;4463222848tanh</title>
<path fill="none" stroke="black" d="M1141.18,-127.5C1149.52,-127.5 1157.62,-127.5 1165.06,-127.5"/>
<polygon fill="black" stroke="black" points="1165,-131 1175,-127.5 1165,-124 1165,-131"/>
</g>
<!-- 4463185776+&#45;&gt;4463185776 -->
<g id="edge5" class="edge">
<title>4463185776+&#45;&gt;4463185776</title>
<path fill="none" stroke="black" d="M924.37,-127.5C931.51,-127.5 939.7,-127.5 948.39,-127.5"/>
<polygon fill="black" stroke="black" points="948.11,-131 958.11,-127.5 948.11,-124 948.11,-131"/>
</g>
<!-- 4459525504 -->
<g id="node15" class="node">
<title>4459525504</title>
<polygon fill="none" stroke="black" points="3.75,-0.5 3.75,-36.5 194.25,-36.5 194.25,-0.5 3.75,-0.5"/>
<text xml:space="preserve" text-anchor="middle" x="18.5" y="-13.7" font-family="Times,serif" font-size="14.00">x2</text>
<polyline fill="none" stroke="black" points="33.25,-1 33.25,-36.5"/>
<text xml:space="preserve" text-anchor="middle" x="73.12" y="-13.7" font-family="Times,serif" font-size="14.00">data 0.0000</text>
<polyline fill="none" stroke="black" points="113,-1 113,-36.5"/>
<text xml:space="preserve" text-anchor="middle" x="153.62" y="-13.7" font-family="Times,serif" font-size="14.00">grad 0.5000</text>
</g>
<!-- 4459525504&#45;&gt;4463185440* -->
<g id="edge12" class="edge">
<title>4459525504&#45;&gt;4463185440*</title>
<path fill="none" stroke="black" d="M168.91,-36.94C178.74,-39.93 188.67,-43.15 198,-46.5 207.96,-50.07 218.58,-54.47 228.18,-58.68"/>
<polygon fill="black" stroke="black" points="226.54,-61.78 237.1,-62.67 229.4,-55.39 226.54,-61.78"/>
</g>
</g>
</svg>
